<?xml version="1.0" encoding="UTF-8" standalone="no"?>
<!-- Created with Inkscape (http://www.inkscape.org/) -->

<svg
   xmlns:dc="http://purl.org/dc/elements/1.1/"
   xmlns:cc="http://creativecommons.org/ns#"
   xmlns:rdf="http://www.w3.org/1999/02/22-rdf-syntax-ns#"
   xmlns:svg="http://www.w3.org/2000/svg"
   xmlns="http://www.w3.org/2000/svg"
   xmlns:sodipodi="http://sodipodi.sourceforge.net/DTD/sodipodi-0.dtd"
   xmlns:inkscape="http://www.inkscape.org/namespaces/inkscape"
   width="51.890373mm"
   height="51.890373mm"
   viewBox="0 0 51.890373 51.890373"
   version="1.1"
   id="svg8"
   inkscape:version="0.92.4 5da689c313, 2019-01-14"
   sodipodi:docname="logo_diffed.svg">
  <defs
     id="defs2" />
  <sodipodi:namedview
     id="base"
     pagecolor="#ffffff"
     bordercolor="#666666"
     borderopacity="1.0"
     inkscape:pageopacity="0.0"
     inkscape:pageshadow="2"
     inkscape:zoom="1.4"
     inkscape:cx="-10.275036"
     inkscape:cy="21.700471"
     inkscape:document-units="mm"
     inkscape:current-layer="layer1"
     showgrid="false"
     inkscape:window-width="1918"
     inkscape:window-height="1162"
     inkscape:window-x="1920"
     inkscape:window-y="18"
     inkscape:window-maximized="1"
     fit-margin-top="0"
     fit-margin-left="0"
     fit-margin-right="0"
     fit-margin-bottom="0"
     showguides="false" />
  <metadata
     id="metadata5">
    <rdf:RDF>
      <cc:Work
         rdf:about="">
        <dc:format>image/svg+xml</dc:format>
        <dc:type
           rdf:resource="http://purl.org/dc/dcmitype/StillImage" />
        <dc:title></dc:title>
      </cc:Work>
    </rdf:RDF>
  </metadata>
  <g
     inkscape:label="Ebene 1"
     inkscape:groupmode="layer"
     id="layer1"
     transform="translate(-7.3943787,-8.9268048)">
    <path
       style="fill:#000000;fill-opacity:1;stroke:none;stroke-width:11.69266129;stroke-linecap:butt;stroke-linejoin:round;stroke-miterlimit:4;stroke-dasharray:none;stroke-dashoffset:0;stroke-opacity:1;paint-order:normal"
       d="m 49.583984,38.314453 c -6.243342,0 -11.269531,5.026189 -11.269531,11.269531 V 223.16602 c 0,6.24334 5.026189,11.26953 11.269531,11.26953 H 223.16602 c 6.24334,0 11.26953,-5.02619 11.26953,-11.26953 V 49.583984 c 0,-6.243342 -5.02619,-11.269531 -11.26953,-11.269531 z m 3.263672,5.707031 a 8.8253831,8.8253831 0 0 1 8.824219,8.826172 8.8253831,8.8253831 0 0 1 -8.824219,8.824219 8.8253831,8.8253831 0 0 1 -8.826172,-8.824219 8.8253831,8.8253831 0 0 1 8.826172,-8.826172 z m 167.054684,0 a 8.8253832,8.8253832 0 0 1 8.82422,8.826172 8.8253832,8.8253832 0 0 1 -8.82422,8.824219 8.8253832,8.8253832 0 0 1 -8.82617,-8.824219 8.8253832,8.8253832 0 0 1 8.82617,-8.826172 z M 136.375,48.121094 A 88.253829,88.253829 0 0 1 224.62891,136.375 88.253829,88.253829 0 0 1 136.375,224.62891 88.253829,88.253829 0 0 1 48.121094,136.375 88.253829,88.253829 0 0 1 136.375,48.121094 Z m 3.77734,12.796875 v 37.849609 a 37.795276,37.795276 0 0 1 20.12305,8.359372 L 187.00391,80.398438 A 75.590544,75.590544 0 0 0 140.15234,60.917969 Z m -7.55859,0.06055 a 75.590544,75.590544 0 0 0 -46.869141,19.40039 l 26.748051,26.750001 a 37.795276,37.795276 0 0 1 20.12109,-8.320313 z M 80.380859,85.722656 A 75.590544,75.590544 0 0 0 60.935547,132.59375 h 37.833984 a 37.795276,37.795276 0 0 1 8.359379,-20.12305 z m 111.968751,0.02148 -26.72852,26.728524 a 37.795276,37.795276 0 0 1 8.32032,20.12303 h 37.82617 A 75.590544,75.590544 0 0 0 192.34961,85.744141 Z M 136.37695,108.0293 A 28.346457,28.346457 0 0 0 108.0293,136.375 28.346457,28.346457 0 0 0 136.37695,164.72266 28.346457,28.346457 0 0 0 164.7207,136.375 28.346457,28.346457 0 0 0 136.37695,108.0293 Z m 75.4375,32.12304 -37.83398,0.002 a 37.795276,37.795276 0 0 1 -8.35742,20.125 l 26.74609,26.74609 a 75.590544,75.590544 0 0 0 19.44531,-46.87305 z m -150.833981,0.002 a 75.590544,75.590544 0 0 0 19.417969,46.85351 L 107.12891,160.27734 A 37.795276,37.795276 0 0 1 98.810547,140.1543 Z m 51.492191,25.46484 v 0.002 L 85.744141,192.3497 a 75.590544,75.590544 0 0 0 46.849609,19.48242 v -37.85351 a 37.795276,37.795276 0 0 1 -20.12109,-8.35938 z m 47.80468,0.004 a 37.795276,37.795276 0 0 1 -20.125,8.31836 v 37.82812 a 75.590544,75.590544 0 0 0 46.8711,-19.40039 z M 52.847656,211.07617 a 8.825383,8.825383 0 0 1 8.824219,8.82617 8.825383,8.825383 0 0 1 -8.824219,8.82422 8.825383,8.825383 0 0 1 -8.826172,-8.82422 8.825383,8.825383 0 0 1 8.826172,-8.82617 z m 167.054684,0 a 8.8253833,8.8253833 0 0 1 8.82422,8.82617 8.8253833,8.8253833 0 0 1 -8.82422,8.82422 8.8253833,8.8253833 0 0 1 -8.82617,-8.82422 8.8253833,8.8253833 0 0 1 8.82617,-8.82617 z"
       transform="matrix(0.26458333,0,0,0.26458333,-2.7429869,-1.2105608)"
       id="path4590"
       inkscape:connector-curvature="0" />
  </g>
</svg>
